<?xml version="1.0" encoding="UTF-8" standalone="no"?>
<!-- Created with Inkscape (http://www.inkscape.org/) -->

<svg
   width="500"
   height="600"
   viewBox="0 0 132.29166 158.75"
   version="1.1"
   id="svg8"
   inkscape:version="1.2 (dc2aedaf03, 2022-05-15)"
   sodipodi:docname="cup.svg"
   xmlns:inkscape="http://www.inkscape.org/namespaces/inkscape"
   xmlns:sodipodi="http://sodipodi.sourceforge.net/DTD/sodipodi-0.dtd"
   xmlns:xlink="http://www.w3.org/1999/xlink"
   xmlns="http://www.w3.org/2000/svg"
   xmlns:svg="http://www.w3.org/2000/svg"
   xmlns:rdf="http://www.w3.org/1999/02/22-rdf-syntax-ns#"
   xmlns:cc="http://creativecommons.org/ns#"
   xmlns:dc="http://purl.org/dc/elements/1.1/"
   >
  <defs
     id="defs2">
    <linearGradient
       inkscape:collect="always"
       id="linearGradient1553">
      <stop
         style="stop-color:#373dc8;stop-opacity:1;"
         offset="0"
         id="stop1549" />
      <stop
         style="stop-color:#373dc8;stop-opacity:0.36595744;"
         offset="0.51881969"
         id="stop2785" />
      <stop
         style="stop-color:#373dc8;stop-opacity:1;"
         offset="1"
         id="stop1551" />
    </linearGradient>
    <linearGradient
       inkscape:collect="always"
       id="linearGradient1450">
      <stop
         style="stop-color:#e7a87e;stop-opacity:1;"
         offset="0"
         id="stop1446" />
      <stop
         style="stop-color:#2e1200;stop-opacity:1;"
         offset="1"
         id="stop1448" />
    </linearGradient>
    <linearGradient
       inkscape:collect="always"
       id="linearGradient1269">
      <stop
         style="stop-color:#8c87de;stop-opacity:1;"
         offset="0"
         id="stop1265" />
      <stop
         style="stop-color:#373dc8;stop-opacity:1;"
         offset="1"
         id="stop1267" />
    </linearGradient>
    <radialGradient
       inkscape:collect="always"
       xlink:href="#linearGradient1269"
       id="radialGradient1271"
       cx="57.452896"
       cy="265.03201"
       fx="57.452896"
       fy="265.03201"
       r="66.166709"
       gradientTransform="matrix(0.39611442,0.22783467,-0.22561278,0.25676577,85.021781,163.83185)"
       gradientUnits="userSpaceOnUse" />
    <filter
       inkscape:collect="always"
       style="color-interpolation-filters:sRGB"
       id="filter1347"
       x="-0.026504466"
       width="1.0537441"
       y="-0.32088858"
       height="1.6599945">
      <feGaussianBlur
         inkscape:collect="always"
         stdDeviation="0.40448956"
         id="feGaussianBlur1349" />
    </filter>
    <filter
       inkscape:collect="always"
       style="color-interpolation-filters:sRGB"
       id="filter1431"
       x="-0.049290777"
       width="1.1010321"
       y="-0.041795339"
       height="1.0831358">
      <feGaussianBlur
         inkscape:collect="always"
         stdDeviation="0.54320505"
         id="feGaussianBlur1433" />
    </filter>
    <radialGradient
       inkscape:collect="always"
       xlink:href="#linearGradient1450"
       id="radialGradient1452"
       cx="127.30248"
       cy="225.09094"
       fx="127.30248"
       fy="225.09094"
       r="58.923271"
       gradientTransform="matrix(0.19533716,-0.19943974,0.30617635,0.26076028,-30.805317,187.02062)"
       gradientUnits="userSpaceOnUse" />
    <filter
       inkscape:collect="always"
       style="color-interpolation-filters:sRGB"
       id="filter1502"
       x="-0.012661416"
       width="1.0253228"
       y="-0.043610004"
       height="1.08722">
      <feGaussianBlur
         inkscape:collect="always"
         stdDeviation="0.64012439"
         id="feGaussianBlur1504" />
    </filter>
    <filter
       inkscape:collect="always"
       style="color-interpolation-filters:sRGB"
       id="filter1578"
       x="-0.31145753"
       width="1.6229209"
       y="-0.33971383"
       height="1.6706432">
      <feGaussianBlur
         inkscape:collect="always"
         stdDeviation="7.5582751"
         id="feGaussianBlur1580" />
    </filter>
    <filter
       inkscape:collect="always"
       style="color-interpolation-filters:sRGB"
       id="filter2012"
       x="-0.029143991"
       width="1.058288"
       y="-0.10038132"
       height="1.2007626">
      <feGaussianBlur
         inkscape:collect="always"
         stdDeviation="0.6698265"
         id="feGaussianBlur2014" />
    </filter>
    <filter
       inkscape:collect="always"
       style="color-interpolation-filters:sRGB"
       id="filter2036"
       x="-0.029143996"
       width="1.058288"
       y="-0.10038132"
       height="1.2007627">
      <feGaussianBlur
         inkscape:collect="always"
         stdDeviation="1.4936236"
         id="feGaussianBlur2038" />
    </filter>
    <radialGradient
       inkscape:collect="always"
       xlink:href="#linearGradient1553"
       id="radialGradient2787"
       cx="229.92171"
       cy="269.38034"
       fx="229.92171"
       fy="269.38034"
       r="70.00116"
       gradientTransform="matrix(1,0,0,0.3392167,0,178.00202)"
       gradientUnits="userSpaceOnUse" />
  </defs>
  <sodipodi:namedview
     id="base"
     pagecolor="#ffffff"
     bordercolor="#666666"
     borderopacity="1.0"
     inkscape:pageopacity="0.0"
     inkscape:pageshadow="2"
     inkscape:zoom="0.99937758"
     inkscape:cx="34.521487"
     inkscape:cy="348.21674"
     inkscape:document-units="mm"
     inkscape:current-layer="layer1"
     showgrid="true"
     units="px"
     gridtolerance="2"
     showguides="true"
     inkscape:guide-bbox="true"
     inkscape:window-width="1920"
     inkscape:window-height="1009"
     inkscape:window-x="-8"
     inkscape:window-y="-8"
     inkscape:window-maximized="1"
     inkscape:showpageshadow="2"
     inkscape:pagecheckerboard="0"
     inkscape:deskcolor="#d1d1d1">
    <inkscape:grid
       type="xygrid"
       id="grid815"
       spacingx="1.3229166"
       spacingy="1.3229166" />
    <sodipodi:guide
       position="66.145832,79.374998"
       orientation="0,1"
       id="guide819"
       inkscape:locked="false"
       inkscape:label=""
       inkscape:color="rgb(0,0,255)" />
    <sodipodi:guide
       position="66.145998,79.375"
       orientation="1,0"
       id="guide821"
       inkscape:locked="false"
       inkscape:label=""
       inkscape:color="rgb(0,0,255)" />
  </sodipodi:namedview>
  <metadata
     id="metadata5">
    <rdf:RDF>
      <cc:Work
         rdf:about="">
        <dc:format>image/svg+xml</dc:format>
        <dc:type
           rdf:resource="http://purl.org/dc/dcmitype/StillImage" />
        <dc:title />
      </cc:Work>
    </rdf:RDF>
  </metadata>
  <g
     inkscape:label="Layer 1"
     inkscape:groupmode="layer"
     id="layer1"
     transform="translate(0,-138.24998)">
    <g
       id="g2049"
       transform="matrix(0.764834,0,0,0.61880451,-109.81803,97.040559)"
       style="fill:url(#radialGradient2787);fill-opacity:1;stroke:#37268a;stroke-opacity:0.47909969">
      <path
         d="m 296.05068,268.80605 a 66.14566,23.987001 0 0 1 -32.87446,21.06583 66.14566,23.987001 0 0 1 -66.74732,-0.0461 66.14566,23.987001 0 0 1 -32.65282,-21.11112 l 66.13531,0.42425 z"
         sodipodi:end="3.1592802"
         sodipodi:start="6.2693092"
         sodipodi:ry="23.987001"
         sodipodi:rx="66.14566"
         sodipodi:cy="269.13889"
         sodipodi:cx="229.91139"
         sodipodi:type="arc"
         id="path1592"
         style="fill:url(#radialGradient2787);fill-opacity:1;fill-rule:evenodd;stroke:#37268a;stroke-width:0.605298;stroke-miterlimit:4;stroke-dasharray:none;stroke-opacity:0.47909969"
         sodipodi:arc-type="slice" />
      <path
         style="fill:url(#radialGradient2787);fill-opacity:1;fill-rule:evenodd;stroke:#37268a;stroke-width:0.541602;stroke-miterlimit:4;stroke-dasharray:none;stroke-opacity:0.47909969"
         id="path1602"
         sodipodi:type="arc"
         sodipodi:cx="229.92171"
         sodipodi:cy="268.69452"
         sodipodi:rx="66.14566"
         sodipodi:ry="19.204258"
         sodipodi:start="3.1415927"
         sodipodi:end="3.1405455"
         sodipodi:open="true"
         d="m 163.77605,268.69452 a 66.14566,19.204258 0 0 1 66.12834,-19.20426 66.14566,19.204258 0 0 1 66.16297,19.1942 66.14566,19.204258 0 0 1 -66.09371,19.21431 66.14566,19.204258 0 0 1 -66.19757,-19.18414"
         sodipodi:arc-type="arc" />
      <path
         style="fill:url(#radialGradient2787);fill-opacity:1;fill-rule:evenodd;stroke:#37268a;stroke-width:0.541602;stroke-miterlimit:4;stroke-dasharray:none;stroke-opacity:0.47909969;filter:url(#filter2036)"
         id="path1598"
         sodipodi:type="arc"
         sodipodi:cx="229.92171"
         sodipodi:cy="268.69452"
         sodipodi:rx="66.14566"
         sodipodi:ry="19.204258"
         sodipodi:start="3.1415927"
         sodipodi:end="3.1405455"
         sodipodi:open="true"
         d="m 163.77605,268.69452 a 66.14566,19.204258 0 0 1 66.12834,-19.20426 66.14566,19.204258 0 0 1 66.16297,19.1942 66.14566,19.204258 0 0 1 -66.09371,19.21431 66.14566,19.204258 0 0 1 -66.19757,-19.18414"
         sodipodi:arc-type="arc" />
    </g>
    <path
       style="fill:#3c37c8;fill-opacity:1;fill-rule:evenodd;stroke:#280b0b;stroke-width:0.242885;stroke-miterlimit:4;stroke-dasharray:none;stroke-opacity:1;filter:url(#filter2012)"
       id="path1600"
       sodipodi:type="arc"
       sodipodi:cx="64.335587"
       sodipodi:cy="290.5311"
       sodipodi:rx="29.663509"
       sodipodi:ry="8.6122904"
       sodipodi:start="3.1415927"
       sodipodi:end="3.1405455"
       sodipodi:open="true"
       d="m 34.672077,290.5311 a 29.663509,8.6122904 0 0 1 29.655745,-8.61229 29.663509,8.6122904 0 0 1 29.67127,8.60778 29.663509,8.6122904 0 0 1 -29.640209,8.6168 29.663509,8.6122904 0 0 1 -29.68679,-8.60327"
       sodipodi:arc-type="arc"
       transform="matrix(0.764834,0,0,0.61880451,15.435308,84.66541)" />
    <path
       style="fill:url(#radialGradient1271);fill-opacity:1;fill-rule:evenodd;stroke:none;stroke-width:0.199553;stroke-opacity:1"
       d="m 65.952374,205.53534 c -27.299907,0 -49.545434,5.24882 -50.551057,11.81541 h -0.07155 l 0.03874,0.33258 c -0.002,0.0438 -0.0068,0.0873 -0.0068,0.13139 h 0.02214 l 0.01265,0.10757 c 0.03915,0.33564 0.124645,0.76214 0.265205,1.23051 -0.196241,-0.43952 -0.299987,-0.88577 -0.299987,-1.33795 0.02368,21.99781 14.891323,40.60972 35.381394,46.88269 0.0319,3.85667 9.926903,3.88615 15.235669,3.8837 5.305433,-0.003 15.150628,0.0887 15.224206,-3.89649 20.467786,-6.28494 35.309876,-24.88375 35.339116,-46.85647 -0.002,0.55122 -0.15699,1.09377 -0.44939,1.62574 0.10261,-0.63481 0.17049,-1.20685 0.24108,-1.59216 l 0.0183,-0.0985 h 0.18813 C 116.42559,211.0054 93.821771,205.53545 65.952357,205.53545 Z m 50.587816,12.2279 c 2.3e-4,0.0143 0.002,0.0284 0.002,0.0429 0,-0.0143 3.7e-4,-0.0285 3.7e-4,-0.0429 z m 0.002,0.0429 c -2e-5,0.006 -3.9e-4,0.0143 -4.2e-4,0.0222 3e-5,-0.003 7.6e-4,-0.009 7.6e-4,-0.0128 0,-0.003 -3.9e-4,-0.006 -3.9e-4,-0.009 z"
       id="path850"
       inkscape:connector-curvature="0" />
    <path
       d="M -0.04447937,214.86884 A 66.14566,19.204258 0 0 1 66.083867,195.66458 66.14566,19.204258 0 0 1 132.24683,214.85878 66.14566,19.204258 0 0 1 66.153129,234.07309 66.14566,19.204258 0 0 1 -0.0444431,214.88895"
       sodipodi:open="true"
       sodipodi:end="3.1405455"
       sodipodi:start="3.1415927"
       sodipodi:ry="19.204258"
       sodipodi:rx="66.14566"
       sodipodi:cy="214.86884"
       sodipodi:cx="66.101181"
       sodipodi:type="arc"
       id="path984"
       style="fill:none;fill-opacity:1;fill-rule:evenodd;stroke:#280b0b;stroke-width:0.277394;stroke-opacity:1;filter:url(#filter1502)"
       sodipodi:arc-type="arc"
       transform="matrix(0.764834,0,0,0.61880451,15.435308,84.66541)" />
    <path
       style="fill:url(#radialGradient1452);fill-opacity:1;fill-rule:evenodd;stroke:none;stroke-width:0.195413;stroke-opacity:1"
       d="m 66.026017,215.2749 a 50.590452,11.882946 0 0 0 -45.019292,6.49477 50.590452,11.882946 0 0 0 45.139447,6.50103 50.590452,11.882946 0 0 0 44.993608,-6.49514 50.590452,11.882946 0 0 0 -45.113763,-6.50066 z"
       id="path1222"
       inkscape:connector-curvature="0" />
    <path
       style="fill:none;stroke:#501616;stroke-width:0.231329px;stroke-linecap:butt;stroke-linejoin:miter;stroke-opacity:1;filter:url(#filter1347)"
       d="m 46.164105,290.40606 c 1.227554,1.34335 -1.573708,1.72198 13.359982,2.9529 4.428221,0.365 8.835397,0.21094 13.379352,0.11299 11.020584,-0.23755 13.375737,-1.35323 13.08614,-3.08656"
       id="path1277"
       inkscape:connector-curvature="0"
       sodipodi:nodetypes="cssc"
       transform="matrix(0.764834,0,0,0.61880451,15.435308,84.66541)" />
    <path
       style="fill:#3e37c8;fill-opacity:1;stroke:none;stroke-width:0.182022px;stroke-linecap:butt;stroke-linejoin:miter;stroke-opacity:1"
       d="m 112.86389,224.39897 2.15326,3.618 c 0,0 25.5734,-0.99751 -7.1646,16.69321 l -4.00908,4.55648 c -0.24448,0.035 47.95056,-20.27002 9.02042,-24.86769 z"
       id="path1361"
       inkscape:connector-curvature="0"
       sodipodi:nodetypes="ccccc" />
    <path
       style="fill:none;stroke:#f4d7d7;stroke-width:0.264583px;stroke-linecap:butt;stroke-linejoin:miter;stroke-opacity:1;filter:url(#filter1431)"
       d="m 118.05571,262.55016 c 50.29494,-27.55954 18.29899,-33.59805 10.85058,-34.34184"
       id="path1367"
       inkscape:connector-curvature="0"
       sodipodi:nodetypes="cc"
       transform="matrix(0.764834,0,0,0.61880451,15.435308,84.66541)" />
    <path
       style="opacity:0.504;fill:#deaa87;fill-opacity:1;fill-rule:evenodd;stroke:#fffafa;stroke-width:0.966593;stroke-miterlimit:4;stroke-dasharray:none;stroke-opacity:0.889447;filter:url(#filter1578)"
       id="path1506"
       sodipodi:type="arc"
       sodipodi:cx="59.560089"
       sodipodi:cy="206.89769"
       sodipodi:rx="29.928902"
       sodipodi:ry="54.332954"
       sodipodi:start="3.2076451"
       sodipodi:end="0.0090037895"
       sodipodi:open="true"
       d="m 29.696452,203.31147 a 29.928902,54.332954 0 0 1 30.986549,-50.70848 29.928902,54.332954 0 0 1 28.804777,54.7839"
       sodipodi:arc-type="arc"
       transform="matrix(0.764834,0,0,0.61880451,15.435308,84.66541)" />
    <text
       xml:space="preserve"
       style="font-style:normal;font-variant:normal;font-weight:normal;font-stretch:normal;font-size:9.29978px;line-height:1.25;font-family:sans-serif;-inkscape-font-specification:sans-serif;letter-spacing:0px;word-spacing:0px;fill:#000000;fill-opacity:1;stroke:none;stroke-width:0.498203"
       id="text1584"
       transform="matrix(1.2914923,0,0,1.279198,-8.4775673,-62.544116)"><textPath
         xlink:href="#path1586"
         id="textPath1588">Кофе</textPath></text>
    <path
       style="fill:none;stroke:none;stroke-width:0.182022px;stroke-linecap:butt;stroke-linejoin:miter;stroke-opacity:1"
       d="m 27.577049,235.58138 c 10.707537,4.11891 21.602568,2.96724 22.411721,3.07074"
       id="path1586"
       inkscape:connector-curvature="0"
       sodipodi:nodetypes="cc" />
  </g>
</svg>
