<?xml version="1.0" encoding="UTF-8" standalone="no"?>
<!-- Created with Inkscape (http://www.inkscape.org/) -->

<svg
   width="210mm"
   height="297mm"
   viewBox="0 0 210 297"
   version="1.1"
   id="svg8"
   inkscape:version="1.2 (dc2aedaf03, 2022-05-15)"
   sodipodi:docname="snejinka.svg"
   xmlns:inkscape="http://www.inkscape.org/namespaces/inkscape"
   xmlns:sodipodi="http://sodipodi.sourceforge.net/DTD/sodipodi-0.dtd"
   xmlns="http://www.w3.org/2000/svg"
   xmlns:svg="http://www.w3.org/2000/svg"
   xmlns:rdf="http://www.w3.org/1999/02/22-rdf-syntax-ns#"
   xmlns:cc="http://creativecommons.org/ns#"
   xmlns:dc="http://purl.org/dc/elements/1.1/">
  <defs
     id="defs2">
    <inkscape:path-effect
       effect="vonkoch"
       id="path-effect4682"
       is_visible="true"
       ref_path="M 43.093743,76.323013 165.78358,76.019973"
       generator="m 83.837859,76.232524 20.441821,-35.81686 m -61.681245,35.97891 41.239424,-0.16205 m 41.201801,-0.18345 41.23923,-0.20519 m -61.99921,-35.42822 20.75998,35.63341"
       similar_only="true"
       nbgenerations="3"
       drawall="false"
       maxComplexity="1000"
       generator-nodetypes="cccccccc"
       ref_path-nodetypes="cc" />
    <inkscape:path-effect
       effect="vonkoch"
       id="path-effect4678"
       is_visible="true"
       ref_path="M 43.093743,76.323013 165.78358,76.019973"
       generator="m 83.837859,76.232524 20.441821,-35.81686 m -61.681245,35.97891 41.239424,-0.16205 m 41.201801,-0.18345 41.23923,-0.20519 m -61.99921,-35.42822 20.75998,35.63341"
       similar_only="true"
       nbgenerations="3"
       drawall="false"
       maxComplexity="1000"
       generator-nodetypes="cccccccc"
       ref_path-nodetypes="cc" />
    <inkscape:path-effect
       ref_path-nodetypes="cc"
       generator-nodetypes="cccccccc"
       maxComplexity="1000"
       drawall="false"
       nbgenerations="3"
       similar_only="true"
       generator="m 83.837859,76.232524 20.441821,-35.81686 m -61.681245,35.97891 41.239424,-0.16205 m 41.201801,-0.18345 41.23923,-0.20519 m -61.99921,-35.42822 20.75998,35.63341"
       ref_path="M 43.093743,76.323013 165.78358,76.019973"
       is_visible="true"
       id="path-effect4674"
       effect="vonkoch" />
    <inkscape:path-effect
       effect="vonkoch"
       id="path-effect4626"
       is_visible="true"
       ref_path="M 43.093743,76.323013 165.78358,76.019973"
       generator="m 83.837859,76.232524 20.441821,-35.81686 m -61.681245,35.97891 41.239424,-0.16205 m 41.201801,-0.18345 41.23923,-0.20519 m -61.99921,-35.42822 20.75998,35.63341"
       similar_only="true"
       nbgenerations="3"
       drawall="false"
       maxComplexity="1000"
       generator-nodetypes="cccccccc"
       ref_path-nodetypes="cc" />
    <inkscape:path-effect
       effect="vonkoch"
       id="path-effect4610"
       is_visible="true"
       ref_path="M 49.645899,-3.8433334 32.799098,24.448396 m 0,0 -32.61425096,0.451631 M 98.618448,25.353068 65.693669,24.909176 m 0,0 -16.04777,-28.7525094"
       generator="m 48.938123,64.693419 37.964009,-0.175118 m 38.139128,0.350236 37.96401,-0.175118"
       similar_only="false"
       nbgenerations="4"
       drawall="true"
       maxComplexity="1000"
       generator-nodetypes="cccc" />
    <inkscape:path-effect
       effect="vonkoch"
       id="path-effect4543"
       is_visible="true"
       ref_path="M 57.045913,119.95073 H 159.43429"
       generator="m 57.045913,168.70938 h 34.12946 m 34.129457,0 h 34.12946"
       similar_only="true"
       nbgenerations="1"
       drawall="true"
       maxComplexity="1000" />
    <inkscape:path-effect
       effect="vonkoch"
       id="path-effect834"
       is_visible="true"
       ref_path="M 36.793621,121.09342 H 98.80534"
       generator="m 36.793621,145.27799 h 20.670573 m 20.670573,0 H 98.80534"
       similar_only="false"
       nbgenerations="1"
       drawall="true"
       maxComplexity="1000" />
    <inkscape:perspective
       sodipodi:type="inkscape:persp3d"
       inkscape:vp_x="-9.0950519 : 189.01432 : 1"
       inkscape:vp_y="0 : 1000 : 0"
       inkscape:vp_z="256.68664 : 182.7763 : 1"
       inkscape:persp3d-origin="105 : 99 : 1"
       id="perspective815" />
  </defs>
  <sodipodi:namedview
     id="base"
     pagecolor="#ffffff"
     bordercolor="#666666"
     borderopacity="1.0"
     inkscape:pageopacity="0.0"
     inkscape:pageshadow="2"
     inkscape:zoom="0.75544332"
     inkscape:cx="189.95469"
     inkscape:cy="477.8651"
     inkscape:document-units="mm"
     inkscape:current-layer="layer1"
     showgrid="false"
     inkscape:window-width="1920"
     inkscape:window-height="1009"
     inkscape:window-x="-8"
     inkscape:window-y="-8"
     inkscape:window-maximized="1"
     inkscape:showpageshadow="2"
     inkscape:pagecheckerboard="0"
     inkscape:deskcolor="#d1d1d1" />
  <metadata
     id="metadata5">
    <rdf:RDF>
      <cc:Work
         rdf:about="">
        <dc:format>image/svg+xml</dc:format>
        <dc:type
           rdf:resource="http://purl.org/dc/dcmitype/StillImage" />
        <dc:title />
      </cc:Work>
    </rdf:RDF>
  </metadata>
  <g
     inkscape:label="Layer 1"
     inkscape:groupmode="layer"
     id="layer1">
    <path
       sodipodi:nodetypes="cccccc"
       inkscape:connector-curvature="0"
       id="path4624"
       d="m 85.978591,60.826594 0.766057,-1.366011 1.566049,-0.01794 m -4.696692,0.05625 1.566029,-0.01958 0.798557,1.347271 m 3.132184,1.774742 1.566048,-0.01794 0.797146,1.348105 m -2.392826,-4.041839 0.798556,1.347271 -0.768924,1.364401 m -4.733191,-8.021757 1.566029,-0.01958 0.798555,1.347271 m -2.397053,-4.039333 0.799965,1.346434 -0.767496,1.365204 m 0.02911,3.599924 0.798556,1.34727 -0.768923,1.3644 m 2.30393,-4.093163 -0.767496,1.365203 -1.566067,0.01629 m 0.09234,12.425868 1.566049,-0.01794 0.797146,1.348106 m -2.392827,-4.041839 0.798556,1.347271 -0.768924,1.3644 m 0.02535,3.599951 0.797147,1.348106 -0.770352,1.363595 m 2.308214,-4.090751 -0.768925,1.3644 -1.566084,0.01465 m 4.588952,-8.105136 0.798556,1.347271 -0.768924,1.3644 m 2.303933,-4.093163 -0.767497,1.365203 -1.566068,0.01629 m -3.104982,1.821919 -0.768923,1.3644 -1.566084,0.01465 m 4.696802,-0.0464 -1.566068,0.01629 -0.795727,-1.348945 M 98.187477,46.5138 l 1.566029,-0.01958 0.798554,1.347271 m -2.397052,-4.039334 0.799965,1.346435 -0.767496,1.365204 m 0.02911,3.599923 0.798556,1.347271 -0.768925,1.3644 m 2.303931,-4.093163 -0.767495,1.365203 -1.566067,0.01629 m 4.580472,-8.109932 0.79996,1.346435 -0.76749,1.365203 m 2.29965,-4.095571 -0.76607,1.366006 -1.56605,0.01793 m -3.103076,1.825166 -0.767496,1.365204 -1.566067,0.01629 m 4.696749,-0.05131 -1.56605,0.01793 -0.797136,-1.348112 m -10.714964,6.292884 0.798557,1.347271 -0.768924,1.3644 m 2.303931,-4.093164 -0.767496,1.365204 -1.566068,0.01629 m -3.104981,1.821919 -0.768923,1.364401 -1.566084,0.01465 m 4.696802,-0.04639 -1.566068,0.01629 -0.795727,-1.348945 m 9.313731,-0.0784 -0.767495,1.365204 -1.566068,0.01629 m 4.69675,-0.05131 -1.566049,0.01793 -0.797138,-1.348112 m -3.130315,-1.77804 -1.566068,0.01629 -0.795726,-1.348945 m 2.388571,4.044357 -0.797137,-1.348111 0.77036,-1.363591 m -35.040598,20.473331 1.566049,-0.01794 0.797146,1.348106 m -2.392827,-4.041839 0.798556,1.347271 -0.768924,1.3644 m 0.02535,3.599952 0.797147,1.348106 -0.770352,1.363595 m 2.308214,-4.090752 -0.768925,1.3644 -1.566084,0.01465 m 4.588952,-8.105137 0.798556,1.347272 -0.768924,1.3644 m 2.303933,-4.093164 -0.767497,1.365204 -1.566068,0.01629 m -3.104982,1.821919 -0.768923,1.364401 -1.566084,0.01465 m 4.696802,-0.04639 -1.566068,0.01629 -0.795727,-1.348945 m -10.721541,6.281669 0.797146,1.348105 -0.770351,1.363595 m 2.308213,-4.090751 -0.768924,1.3644 -1.566084,0.01465 m -3.106886,1.818669 -0.770352,1.363595 -1.566098,0.01301 m 4.696848,-0.04148 -1.566084,0.01465 -0.794314,-1.349777 m 9.313809,-0.06865 -0.768924,1.3644 -1.566084,0.01465 m 4.696802,-0.04639 -1.566068,0.01629 -0.795726,-1.348945 m -3.128454,-1.781316 -1.566083,0.01465 -0.794315,-1.349777 m 2.384338,4.046855 -0.795727,-1.348945 0.771787,-1.362784 m 24.629854,-0.130896 0.798556,1.347271 -0.768924,1.3644 m 2.303932,-4.093163 -0.767496,1.365203 -1.566068,0.01629 m -3.104982,1.821918 -0.768924,1.3644 -1.566084,0.01465 m 4.696802,-0.04639 -1.566067,0.01629 -0.795727,-1.348945 m 9.313732,-0.0784 -0.767496,1.365204 -1.566068,0.01629 m 4.696751,-0.05131 -1.56605,0.01793 -0.797137,-1.348112 m -3.130315,-1.778042 -1.566068,0.01629 -0.795726,-1.348945 m 2.38857,4.044359 -0.797137,-1.348112 0.770361,-1.363591 m -10.800845,-6.14432 -0.768924,1.364401 -1.566084,0.01465 m 4.696802,-0.04639 -1.566067,0.01629 -0.795727,-1.348945 m -3.128453,-1.781314 -1.566084,0.01465 -0.794315,-1.349777 m 2.384338,4.046856 -0.795726,-1.348945 0.771787,-1.362784 m 4.716343,8.03168 -1.566067,0.01629 -0.795727,-1.348945 m 2.38857,4.044359 -0.797137,-1.348112 0.770361,-1.36359 m -0.02155,-3.599979 -0.795727,-1.348945 0.771787,-1.362784 m -2.312519,4.088321 0.77036,-1.36359 1.566099,-0.013 m 70.095091,-0.268333 1.56603,-0.01958 0.79856,1.347271 m -2.39706,-4.039334 0.79997,1.346435 -0.7675,1.365204 m 0.0291,3.599923 0.79856,1.347271 -0.76893,1.3644 m 2.30394,-4.093163 -0.7675,1.365203 -1.56607,0.01629 m 4.58047,-8.109932 0.79997,1.346435 -0.7675,1.365203 m 2.29965,-4.095571 -0.76607,1.366006 -1.56605,0.01793 m -3.10307,1.825166 -0.7675,1.365204 -1.56607,0.01629 m 4.69676,-0.05131 -1.56605,0.01793 -0.79714,-1.348111 m -10.71497,6.29288 0.79856,1.347271 -0.76892,1.3644 m 2.30393,-4.093163 -0.7675,1.365203 -1.56607,0.01629 m -3.10498,1.821918 -0.76892,1.3644 -1.56609,0.01465 m 4.69681,-0.04639 -1.56607,0.01629 -0.79573,-1.348945 m 9.31373,-0.0784 -0.76749,1.365204 -1.56607,0.01629 m 4.69675,-0.05131 -1.56605,0.01793 -0.79714,-1.348112 m -3.13031,-1.778042 -1.56607,0.01629 -0.79572,-1.348945 m 2.38857,4.044359 -0.79714,-1.348113 0.77036,-1.36359 m 24.6297,-0.156661 0.79997,1.346435 -0.7675,1.365203 m 2.29965,-4.095571 -0.76607,1.366006 -1.56605,0.01793 m -3.10307,1.825165 -0.7675,1.365203 -1.56607,0.01629 m 4.69675,-0.0513 -1.56605,0.01793 -0.79713,-1.348112 m 9.31364,-0.08814 -0.76607,1.366006 -1.56605,0.01793 m 4.6967,-0.05622 -1.56603,0.01957 -0.79855,-1.347278 m -3.13217,-1.774766 -1.56605,0.01793 -0.79714,-1.348112 m 2.3928,4.041858 -0.79855,-1.347278 0.76894,-1.364395 m -10.80727,-6.133018 -0.76749,1.365204 -1.56607,0.01629 m 4.69675,-0.05131 -1.56605,0.01793 -0.79714,-1.348112 m -3.13031,-1.77804 -1.56607,0.01629 -0.79573,-1.348945 m 2.38857,4.044359 -0.79713,-1.348112 0.77036,-1.36359 m 4.72474,8.026741 -1.56605,0.01793 -0.79714,-1.348112 m 2.3928,4.041858 -0.79854,-1.347278 0.76893,-1.364395 m -0.0253,-3.599954 -0.79714,-1.348112 0.77036,-1.36359 m -2.30824,4.090737 0.76893,-1.364395 1.56609,-0.01464 m -35.25069,-20.109468 0.79855,1.34727 -0.76892,1.3644 m 2.30393,-4.093163 -0.76749,1.365203 -1.56607,0.01629 m -3.10498,1.821919 -0.76893,1.3644 -1.56608,0.01465 m 4.6968,-0.0464 -1.56607,0.01629 -0.79572,-1.348945 m 9.31373,-0.0784 -0.7675,1.365204 -1.56607,0.01629 m 4.69675,-0.05131 -1.56604,0.01793 -0.79714,-1.348111 m -3.13032,-1.778041 -1.56607,0.01629 -0.79572,-1.348945 m 2.38857,4.044358 -0.79714,-1.348112 0.77036,-1.363591 m -10.80084,-6.144316 -0.76892,1.364401 -1.56609,0.01465 m 4.6968,-0.04639 -1.56606,0.01629 -0.79573,-1.348945 m -3.12845,-1.781314 -1.56609,0.01465 -0.79431,-1.349777 m 2.38433,4.046856 -0.79572,-1.348945 0.77179,-1.362784 m 4.71634,8.031679 -1.56607,0.01629 -0.79572,-1.348945 m 2.38857,4.044359 -0.79714,-1.348112 0.77036,-1.363591 m -0.0216,-3.599978 -0.79572,-1.348945 0.77178,-1.362784 m -2.31252,4.088321 0.77037,-1.36359 1.56609,-0.013 m 12.42825,21.264659 -0.7675,1.365203 -1.56607,0.01629 m 4.69676,-0.05131 -1.56605,0.01793 -0.79714,-1.348111 m -3.13032,-1.778041 -1.56606,0.01629 -0.79573,-1.348945 m 2.38857,4.044359 -0.79714,-1.348112 0.77036,-1.36359 m 4.72475,8.026741 -1.56605,0.01793 -0.79714,-1.348112 m 2.3928,4.041858 -0.79855,-1.347278 0.76894,-1.364395 m -0.0253,-3.599954 -0.79714,-1.348112 0.77036,-1.36359 m -2.30824,4.090737 0.76893,-1.364395 1.56609,-0.01464 m -0.0793,-12.425968 -1.56607,0.01629 -0.79573,-1.348945 m 2.38857,4.044358 -0.79713,-1.348112 0.77036,-1.363591 m -0.0216,-3.599977 -0.79573,-1.348945 0.77179,-1.362784 m -2.31252,4.088321 0.77036,-1.363591 1.5661,-0.013 m -4.59748,8.100304 -0.79714,-1.348111 0.77036,-1.363591 m -2.30824,4.090738 0.76893,-1.364396 1.56609,-0.01464 m 3.1069,-1.81865 0.77036,-1.363591 1.56609,-0.013 m -4.69685,0.04145 1.56609,-0.01464 0.79431,1.349782"
       inkscape:transform-center-x="6.6708168e-06"
       style="opacity:0.504;fill:#550000;fill-opacity:1;fill-rule:evenodd;stroke:#8e0000;stroke-width:2.074;stroke-miterlimit:4;stroke-dasharray:none;stroke-opacity:1"
       inkscape:path-effect="#path-effect4626"
       inkscape:original-d="m 104.27968,64.757346 -20.441821,35.816864 -41.239424,0.16205 m 123.680455,-0.55069 -41.23923,0.20519 -20.75998,-35.633414"
       transform="matrix(0.83061934,0,0,0.870211,17.690998,29.34351)"
       class="UnoptimicedTransforms"
       inkscape:transform-center-y="-4.7354578e-06" />
    <path
       transform="matrix(0,-0.870211,0.83061934,0,-8.1765397,241.12961)"
       inkscape:original-d="m 104.27968,64.757346 -20.441821,35.816864 -41.239424,0.16205 m 123.680455,-0.55069 -41.23923,0.20519 -20.75998,-35.633414"
       inkscape:path-effect="#path-effect4674"
       style="opacity:0.504;fill:#550000;fill-opacity:1;fill-rule:evenodd;stroke:#8e0000;stroke-width:2.074;stroke-miterlimit:4;stroke-dasharray:none;stroke-opacity:1"
       d="m 85.978591,60.826594 0.766057,-1.366011 1.566049,-0.01794 m -4.696692,0.05625 1.566029,-0.01958 0.798557,1.347271 m 3.132184,1.774742 1.566048,-0.01794 0.797146,1.348105 m -2.392826,-4.041839 0.798556,1.347271 -0.768924,1.364401 m -4.733191,-8.021757 1.566029,-0.01958 0.798555,1.347271 m -2.397053,-4.039333 0.799965,1.346434 -0.767496,1.365204 m 0.02911,3.599924 0.798556,1.34727 -0.768923,1.3644 m 2.30393,-4.093163 -0.767496,1.365203 -1.566067,0.01629 m 0.09234,12.425868 1.566049,-0.01794 0.797146,1.348106 m -2.392827,-4.041839 0.798556,1.347271 -0.768924,1.3644 m 0.02535,3.599951 0.797147,1.348106 -0.770352,1.363595 m 2.308214,-4.090751 -0.768925,1.3644 -1.566084,0.01465 m 4.588952,-8.105136 0.798556,1.347271 -0.768924,1.3644 m 2.303933,-4.093163 -0.767497,1.365203 -1.566068,0.01629 m -3.104982,1.821919 -0.768923,1.3644 -1.566084,0.01465 m 4.696802,-0.0464 -1.566068,0.01629 -0.795727,-1.348945 M 98.187477,46.5138 l 1.566029,-0.01958 0.798554,1.347271 m -2.397052,-4.039334 0.799965,1.346435 -0.767496,1.365204 m 0.02911,3.599923 0.798556,1.347271 -0.768925,1.3644 m 2.303931,-4.093163 -0.767495,1.365203 -1.566067,0.01629 m 4.580472,-8.109932 0.79996,1.346435 -0.76749,1.365203 m 2.29965,-4.095571 -0.76607,1.366006 -1.56605,0.01793 m -3.103076,1.825166 -0.767496,1.365204 -1.566067,0.01629 m 4.696749,-0.05131 -1.56605,0.01793 -0.797136,-1.348112 m -10.714964,6.292884 0.798557,1.347271 -0.768924,1.3644 m 2.303931,-4.093164 -0.767496,1.365204 -1.566068,0.01629 m -3.104981,1.821919 -0.768923,1.364401 -1.566084,0.01465 m 4.696802,-0.04639 -1.566068,0.01629 -0.795727,-1.348945 m 9.313731,-0.0784 -0.767495,1.365204 -1.566068,0.01629 m 4.69675,-0.05131 -1.566049,0.01793 -0.797138,-1.348112 m -3.130315,-1.77804 -1.566068,0.01629 -0.795726,-1.348945 m 2.388571,4.044357 -0.797137,-1.348111 0.77036,-1.363591 m -35.040598,20.473331 1.566049,-0.01794 0.797146,1.348106 m -2.392827,-4.041839 0.798556,1.347271 -0.768924,1.3644 m 0.02535,3.599952 0.797147,1.348106 -0.770352,1.363595 m 2.308214,-4.090752 -0.768925,1.3644 -1.566084,0.01465 m 4.588952,-8.105137 0.798556,1.347272 -0.768924,1.3644 m 2.303933,-4.093164 -0.767497,1.365204 -1.566068,0.01629 m -3.104982,1.821919 -0.768923,1.364401 -1.566084,0.01465 m 4.696802,-0.04639 -1.566068,0.01629 -0.795727,-1.348945 m -10.721541,6.281669 0.797146,1.348105 -0.770351,1.363595 m 2.308213,-4.090751 -0.768924,1.3644 -1.566084,0.01465 m -3.106886,1.818669 -0.770352,1.363595 -1.566098,0.01301 m 4.696848,-0.04148 -1.566084,0.01465 -0.794314,-1.349777 m 9.313809,-0.06865 -0.768924,1.3644 -1.566084,0.01465 m 4.696802,-0.04639 -1.566068,0.01629 -0.795726,-1.348945 m -3.128454,-1.781316 -1.566083,0.01465 -0.794315,-1.349777 m 2.384338,4.046855 -0.795727,-1.348945 0.771787,-1.362784 m 24.629854,-0.130896 0.798556,1.347271 -0.768924,1.3644 m 2.303932,-4.093163 -0.767496,1.365203 -1.566068,0.01629 m -3.104982,1.821918 -0.768924,1.3644 -1.566084,0.01465 m 4.696802,-0.04639 -1.566067,0.01629 -0.795727,-1.348945 m 9.313732,-0.0784 -0.767496,1.365204 -1.566068,0.01629 m 4.696751,-0.05131 -1.56605,0.01793 -0.797137,-1.348112 m -3.130315,-1.778042 -1.566068,0.01629 -0.795726,-1.348945 m 2.38857,4.044359 -0.797137,-1.348112 0.770361,-1.363591 m -10.800845,-6.14432 -0.768924,1.364401 -1.566084,0.01465 m 4.696802,-0.04639 -1.566067,0.01629 -0.795727,-1.348945 m -3.128453,-1.781314 -1.566084,0.01465 -0.794315,-1.349777 m 2.384338,4.046856 -0.795726,-1.348945 0.771787,-1.362784 m 4.716343,8.03168 -1.566067,0.01629 -0.795727,-1.348945 m 2.38857,4.044359 -0.797137,-1.348112 0.770361,-1.36359 m -0.02155,-3.599979 -0.795727,-1.348945 0.771787,-1.362784 m -2.312519,4.088321 0.77036,-1.36359 1.566099,-0.013 m 70.095091,-0.268333 1.56603,-0.01958 0.79856,1.347271 m -2.39706,-4.039334 0.79997,1.346435 -0.7675,1.365204 m 0.0291,3.599923 0.79856,1.347271 -0.76893,1.3644 m 2.30394,-4.093163 -0.7675,1.365203 -1.56607,0.01629 m 4.58047,-8.109932 0.79997,1.346435 -0.7675,1.365203 m 2.29965,-4.095571 -0.76607,1.366006 -1.56605,0.01793 m -3.10307,1.825166 -0.7675,1.365204 -1.56607,0.01629 m 4.69676,-0.05131 -1.56605,0.01793 -0.79714,-1.348111 m -10.71497,6.29288 0.79856,1.347271 -0.76892,1.3644 m 2.30393,-4.093163 -0.7675,1.365203 -1.56607,0.01629 m -3.10498,1.821918 -0.76892,1.3644 -1.56609,0.01465 m 4.69681,-0.04639 -1.56607,0.01629 -0.79573,-1.348945 m 9.31373,-0.0784 -0.76749,1.365204 -1.56607,0.01629 m 4.69675,-0.05131 -1.56605,0.01793 -0.79714,-1.348112 m -3.13031,-1.778042 -1.56607,0.01629 -0.79572,-1.348945 m 2.38857,4.044359 -0.79714,-1.348113 0.77036,-1.36359 m 24.6297,-0.156661 0.79997,1.346435 -0.7675,1.365203 m 2.29965,-4.095571 -0.76607,1.366006 -1.56605,0.01793 m -3.10307,1.825165 -0.7675,1.365203 -1.56607,0.01629 m 4.69675,-0.0513 -1.56605,0.01793 -0.79713,-1.348112 m 9.31364,-0.08814 -0.76607,1.366006 -1.56605,0.01793 m 4.6967,-0.05622 -1.56603,0.01957 -0.79855,-1.347278 m -3.13217,-1.774766 -1.56605,0.01793 -0.79714,-1.348112 m 2.3928,4.041858 -0.79855,-1.347278 0.76894,-1.364395 m -10.80727,-6.133018 -0.76749,1.365204 -1.56607,0.01629 m 4.69675,-0.05131 -1.56605,0.01793 -0.79714,-1.348112 m -3.13031,-1.77804 -1.56607,0.01629 -0.79573,-1.348945 m 2.38857,4.044359 -0.79713,-1.348112 0.77036,-1.36359 m 4.72474,8.026741 -1.56605,0.01793 -0.79714,-1.348112 m 2.3928,4.041858 -0.79854,-1.347278 0.76893,-1.364395 m -0.0253,-3.599954 -0.79714,-1.348112 0.77036,-1.36359 m -2.30824,4.090737 0.76893,-1.364395 1.56609,-0.01464 m -35.25069,-20.109468 0.79855,1.34727 -0.76892,1.3644 m 2.30393,-4.093163 -0.76749,1.365203 -1.56607,0.01629 m -3.10498,1.821919 -0.76893,1.3644 -1.56608,0.01465 m 4.6968,-0.0464 -1.56607,0.01629 -0.79572,-1.348945 m 9.31373,-0.0784 -0.7675,1.365204 -1.56607,0.01629 m 4.69675,-0.05131 -1.56604,0.01793 -0.79714,-1.348111 m -3.13032,-1.778041 -1.56607,0.01629 -0.79572,-1.348945 m 2.38857,4.044358 -0.79714,-1.348112 0.77036,-1.363591 m -10.80084,-6.144316 -0.76892,1.364401 -1.56609,0.01465 m 4.6968,-0.04639 -1.56606,0.01629 -0.79573,-1.348945 m -3.12845,-1.781314 -1.56609,0.01465 -0.79431,-1.349777 m 2.38433,4.046856 -0.79572,-1.348945 0.77179,-1.362784 m 4.71634,8.031679 -1.56607,0.01629 -0.79572,-1.348945 m 2.38857,4.044359 -0.79714,-1.348112 0.77036,-1.363591 m -0.0216,-3.599978 -0.79572,-1.348945 0.77178,-1.362784 m -2.31252,4.088321 0.77037,-1.36359 1.56609,-0.013 m 12.42825,21.264659 -0.7675,1.365203 -1.56607,0.01629 m 4.69676,-0.05131 -1.56605,0.01793 -0.79714,-1.348111 m -3.13032,-1.778041 -1.56606,0.01629 -0.79573,-1.348945 m 2.38857,4.044359 -0.79714,-1.348112 0.77036,-1.36359 m 4.72475,8.026741 -1.56605,0.01793 -0.79714,-1.348112 m 2.3928,4.041858 -0.79855,-1.347278 0.76894,-1.364395 m -0.0253,-3.599954 -0.79714,-1.348112 0.77036,-1.36359 m -2.30824,4.090737 0.76893,-1.364395 1.56609,-0.01464 m -0.0793,-12.425968 -1.56607,0.01629 -0.79573,-1.348945 m 2.38857,4.044358 -0.79713,-1.348112 0.77036,-1.363591 m -0.0216,-3.599977 -0.79573,-1.348945 0.77179,-1.362784 m -2.31252,4.088321 0.77036,-1.363591 1.5661,-0.013 m -4.59748,8.100304 -0.79714,-1.348111 0.77036,-1.363591 m -2.30824,4.090738 0.76893,-1.364396 1.56609,-0.01464 m 3.1069,-1.81865 0.77036,-1.363591 1.56609,-0.013 m -4.69685,0.04145 1.56609,-0.01464 0.79431,1.349782"
       id="path4672"
       inkscape:connector-curvature="0"
       sodipodi:nodetypes="cccccc"
       inkscape:transform-center-y="2.9425938e-06"
       inkscape:transform-center-x="3.1778909e-06"
       class="UnoptimicedTransforms" />
    <path
       sodipodi:nodetypes="cccccc"
       inkscape:connector-curvature="0"
       id="path4676"
       d="m 85.978591,60.826594 0.766057,-1.366011 1.566049,-0.01794 m -4.696692,0.05625 1.566029,-0.01958 0.798557,1.347271 m 3.132184,1.774742 1.566048,-0.01794 0.797146,1.348105 m -2.392826,-4.041839 0.798556,1.347271 -0.768924,1.364401 m -4.733191,-8.021757 1.566029,-0.01958 0.798555,1.347271 m -2.397053,-4.039333 0.799965,1.346434 -0.767496,1.365204 m 0.02911,3.599924 0.798556,1.34727 -0.768923,1.3644 m 2.30393,-4.093163 -0.767496,1.365203 -1.566067,0.01629 m 0.09234,12.425868 1.566049,-0.01794 0.797146,1.348106 m -2.392827,-4.041839 0.798556,1.347271 -0.768924,1.3644 m 0.02535,3.599951 0.797147,1.348106 -0.770352,1.363595 m 2.308214,-4.090751 -0.768925,1.3644 -1.566084,0.01465 m 4.588952,-8.105136 0.798556,1.347271 -0.768924,1.3644 m 2.303933,-4.093163 -0.767497,1.365203 -1.566068,0.01629 m -3.104982,1.821919 -0.768923,1.3644 -1.566084,0.01465 m 4.696802,-0.0464 -1.566068,0.01629 -0.795727,-1.348945 M 98.187477,46.5138 l 1.566029,-0.01958 0.798554,1.347271 m -2.397052,-4.039334 0.799965,1.346435 -0.767496,1.365204 m 0.02911,3.599923 0.798556,1.347271 -0.768925,1.3644 m 2.303931,-4.093163 -0.767495,1.365203 -1.566067,0.01629 m 4.580472,-8.109932 0.79996,1.346435 -0.76749,1.365203 m 2.29965,-4.095571 -0.76607,1.366006 -1.56605,0.01793 m -3.103076,1.825166 -0.767496,1.365204 -1.566067,0.01629 m 4.696749,-0.05131 -1.56605,0.01793 -0.797136,-1.348112 m -10.714964,6.292884 0.798557,1.347271 -0.768924,1.3644 m 2.303931,-4.093164 -0.767496,1.365204 -1.566068,0.01629 m -3.104981,1.821919 -0.768923,1.364401 -1.566084,0.01465 m 4.696802,-0.04639 -1.566068,0.01629 -0.795727,-1.348945 m 9.313731,-0.0784 -0.767495,1.365204 -1.566068,0.01629 m 4.69675,-0.05131 -1.566049,0.01793 -0.797138,-1.348112 m -3.130315,-1.77804 -1.566068,0.01629 -0.795726,-1.348945 m 2.388571,4.044357 -0.797137,-1.348111 0.77036,-1.363591 m -35.040598,20.473331 1.566049,-0.01794 0.797146,1.348106 m -2.392827,-4.041839 0.798556,1.347271 -0.768924,1.3644 m 0.02535,3.599952 0.797147,1.348106 -0.770352,1.363595 m 2.308214,-4.090752 -0.768925,1.3644 -1.566084,0.01465 m 4.588952,-8.105137 0.798556,1.347272 -0.768924,1.3644 m 2.303933,-4.093164 -0.767497,1.365204 -1.566068,0.01629 m -3.104982,1.821919 -0.768923,1.364401 -1.566084,0.01465 m 4.696802,-0.04639 -1.566068,0.01629 -0.795727,-1.348945 m -10.721541,6.281669 0.797146,1.348105 -0.770351,1.363595 m 2.308213,-4.090751 -0.768924,1.3644 -1.566084,0.01465 m -3.106886,1.818669 -0.770352,1.363595 -1.566098,0.01301 m 4.696848,-0.04148 -1.566084,0.01465 -0.794314,-1.349777 m 9.313809,-0.06865 -0.768924,1.3644 -1.566084,0.01465 m 4.696802,-0.04639 -1.566068,0.01629 -0.795726,-1.348945 m -3.128454,-1.781316 -1.566083,0.01465 -0.794315,-1.349777 m 2.384338,4.046855 -0.795727,-1.348945 0.771787,-1.362784 m 24.629854,-0.130896 0.798556,1.347271 -0.768924,1.3644 m 2.303932,-4.093163 -0.767496,1.365203 -1.566068,0.01629 m -3.104982,1.821918 -0.768924,1.3644 -1.566084,0.01465 m 4.696802,-0.04639 -1.566067,0.01629 -0.795727,-1.348945 m 9.313732,-0.0784 -0.767496,1.365204 -1.566068,0.01629 m 4.696751,-0.05131 -1.56605,0.01793 -0.797137,-1.348112 m -3.130315,-1.778042 -1.566068,0.01629 -0.795726,-1.348945 m 2.38857,4.044359 -0.797137,-1.348112 0.770361,-1.363591 m -10.800845,-6.14432 -0.768924,1.364401 -1.566084,0.01465 m 4.696802,-0.04639 -1.566067,0.01629 -0.795727,-1.348945 m -3.128453,-1.781314 -1.566084,0.01465 -0.794315,-1.349777 m 2.384338,4.046856 -0.795726,-1.348945 0.771787,-1.362784 m 4.716343,8.03168 -1.566067,0.01629 -0.795727,-1.348945 m 2.38857,4.044359 -0.797137,-1.348112 0.770361,-1.36359 m -0.02155,-3.599979 -0.795727,-1.348945 0.771787,-1.362784 m -2.312519,4.088321 0.77036,-1.36359 1.566099,-0.013 m 70.095091,-0.268333 1.56603,-0.01958 0.79856,1.347271 m -2.39706,-4.039334 0.79997,1.346435 -0.7675,1.365204 m 0.0291,3.599923 0.79856,1.347271 -0.76893,1.3644 m 2.30394,-4.093163 -0.7675,1.365203 -1.56607,0.01629 m 4.58047,-8.109932 0.79997,1.346435 -0.7675,1.365203 m 2.29965,-4.095571 -0.76607,1.366006 -1.56605,0.01793 m -3.10307,1.825166 -0.7675,1.365204 -1.56607,0.01629 m 4.69676,-0.05131 -1.56605,0.01793 -0.79714,-1.348111 m -10.71497,6.29288 0.79856,1.347271 -0.76892,1.3644 m 2.30393,-4.093163 -0.7675,1.365203 -1.56607,0.01629 m -3.10498,1.821918 -0.76892,1.3644 -1.56609,0.01465 m 4.69681,-0.04639 -1.56607,0.01629 -0.79573,-1.348945 m 9.31373,-0.0784 -0.76749,1.365204 -1.56607,0.01629 m 4.69675,-0.05131 -1.56605,0.01793 -0.79714,-1.348112 m -3.13031,-1.778042 -1.56607,0.01629 -0.79572,-1.348945 m 2.38857,4.044359 -0.79714,-1.348113 0.77036,-1.36359 m 24.6297,-0.156661 0.79997,1.346435 -0.7675,1.365203 m 2.29965,-4.095571 -0.76607,1.366006 -1.56605,0.01793 m -3.10307,1.825165 -0.7675,1.365203 -1.56607,0.01629 m 4.69675,-0.0513 -1.56605,0.01793 -0.79713,-1.348112 m 9.31364,-0.08814 -0.76607,1.366006 -1.56605,0.01793 m 4.6967,-0.05622 -1.56603,0.01957 -0.79855,-1.347278 m -3.13217,-1.774766 -1.56605,0.01793 -0.79714,-1.348112 m 2.3928,4.041858 -0.79855,-1.347278 0.76894,-1.364395 m -10.80727,-6.133018 -0.76749,1.365204 -1.56607,0.01629 m 4.69675,-0.05131 -1.56605,0.01793 -0.79714,-1.348112 m -3.13031,-1.77804 -1.56607,0.01629 -0.79573,-1.348945 m 2.38857,4.044359 -0.79713,-1.348112 0.77036,-1.36359 m 4.72474,8.026741 -1.56605,0.01793 -0.79714,-1.348112 m 2.3928,4.041858 -0.79854,-1.347278 0.76893,-1.364395 m -0.0253,-3.599954 -0.79714,-1.348112 0.77036,-1.36359 m -2.30824,4.090737 0.76893,-1.364395 1.56609,-0.01464 m -35.25069,-20.109468 0.79855,1.34727 -0.76892,1.3644 m 2.30393,-4.093163 -0.76749,1.365203 -1.56607,0.01629 m -3.10498,1.821919 -0.76893,1.3644 -1.56608,0.01465 m 4.6968,-0.0464 -1.56607,0.01629 -0.79572,-1.348945 m 9.31373,-0.0784 -0.7675,1.365204 -1.56607,0.01629 m 4.69675,-0.05131 -1.56604,0.01793 -0.79714,-1.348111 m -3.13032,-1.778041 -1.56607,0.01629 -0.79572,-1.348945 m 2.38857,4.044358 -0.79714,-1.348112 0.77036,-1.363591 m -10.80084,-6.144316 -0.76892,1.364401 -1.56609,0.01465 m 4.6968,-0.04639 -1.56606,0.01629 -0.79573,-1.348945 m -3.12845,-1.781314 -1.56609,0.01465 -0.79431,-1.349777 m 2.38433,4.046856 -0.79572,-1.348945 0.77179,-1.362784 m 4.71634,8.031679 -1.56607,0.01629 -0.79572,-1.348945 m 2.38857,4.044359 -0.79714,-1.348112 0.77036,-1.363591 m -0.0216,-3.599978 -0.79572,-1.348945 0.77178,-1.362784 m -2.31252,4.088321 0.77037,-1.36359 1.56609,-0.013 m 12.42825,21.264659 -0.7675,1.365203 -1.56607,0.01629 m 4.69676,-0.05131 -1.56605,0.01793 -0.79714,-1.348111 m -3.13032,-1.778041 -1.56606,0.01629 -0.79573,-1.348945 m 2.38857,4.044359 -0.79714,-1.348112 0.77036,-1.36359 m 4.72475,8.026741 -1.56605,0.01793 -0.79714,-1.348112 m 2.3928,4.041858 -0.79855,-1.347278 0.76894,-1.364395 m -0.0253,-3.599954 -0.79714,-1.348112 0.77036,-1.36359 m -2.30824,4.090737 0.76893,-1.364395 1.56609,-0.01464 m -0.0793,-12.425968 -1.56607,0.01629 -0.79573,-1.348945 m 2.38857,4.044358 -0.79713,-1.348112 0.77036,-1.363591 m -0.0216,-3.599977 -0.79573,-1.348945 0.77179,-1.362784 m -2.31252,4.088321 0.77036,-1.363591 1.5661,-0.013 m -4.59748,8.100304 -0.79714,-1.348111 0.77036,-1.363591 m -2.30824,4.090738 0.76893,-1.364396 1.56609,-0.01464 m 3.1069,-1.81865 0.77036,-1.363591 1.56609,-0.013 m -4.69685,0.04145 1.56609,-0.01464 0.79431,1.349782"
       inkscape:transform-center-x="4.6944277e-06"
       style="opacity:0.504;fill:#550000;fill-opacity:1;fill-rule:evenodd;stroke:#8e0000;stroke-width:2.074;stroke-miterlimit:4;stroke-dasharray:none;stroke-opacity:1"
       inkscape:path-effect="#path-effect4678"
       inkscape:original-d="m 104.27968,64.757346 -20.441821,35.816864 -41.239424,0.16205 m 123.680455,-0.55069 -41.23923,0.20519 -20.75998,-35.633414"
       transform="matrix(0.83061934,0,0,-0.870211,20.878552,270.2181)"
       inkscape:transform-center-y="2.3022237e-06"
       class="UnoptimicedTransforms" />
    <path
       sodipodi:nodetypes="cccccc"
       inkscape:connector-curvature="0"
       id="path4680"
       d="m 85.978591,60.826594 0.766057,-1.366011 1.566049,-0.01794 m -4.696692,0.05625 1.566029,-0.01958 0.798557,1.347271 m 3.132184,1.774742 1.566048,-0.01794 0.797146,1.348105 m -2.392826,-4.041839 0.798556,1.347271 -0.768924,1.364401 m -4.733191,-8.021757 1.566029,-0.01958 0.798555,1.347271 m -2.397053,-4.039333 0.799965,1.346434 -0.767496,1.365204 m 0.02911,3.599924 0.798556,1.34727 -0.768923,1.3644 m 2.30393,-4.093163 -0.767496,1.365203 -1.566067,0.01629 m 0.09234,12.425868 1.566049,-0.01794 0.797146,1.348106 m -2.392827,-4.041839 0.798556,1.347271 -0.768924,1.3644 m 0.02535,3.599951 0.797147,1.348106 -0.770352,1.363595 m 2.308214,-4.090751 -0.768925,1.3644 -1.566084,0.01465 m 4.588952,-8.105136 0.798556,1.347271 -0.768924,1.3644 m 2.303933,-4.093163 -0.767497,1.365203 -1.566068,0.01629 m -3.104982,1.821919 -0.768923,1.3644 -1.566084,0.01465 m 4.696802,-0.0464 -1.566068,0.01629 -0.795727,-1.348945 M 98.187477,46.5138 l 1.566029,-0.01958 0.798554,1.347271 m -2.397052,-4.039334 0.799965,1.346435 -0.767496,1.365204 m 0.02911,3.599923 0.798556,1.347271 -0.768925,1.3644 m 2.303931,-4.093163 -0.767495,1.365203 -1.566067,0.01629 m 4.580472,-8.109932 0.79996,1.346435 -0.76749,1.365203 m 2.29965,-4.095571 -0.76607,1.366006 -1.56605,0.01793 m -3.103076,1.825166 -0.767496,1.365204 -1.566067,0.01629 m 4.696749,-0.05131 -1.56605,0.01793 -0.797136,-1.348112 m -10.714964,6.292884 0.798557,1.347271 -0.768924,1.3644 m 2.303931,-4.093164 -0.767496,1.365204 -1.566068,0.01629 m -3.104981,1.821919 -0.768923,1.364401 -1.566084,0.01465 m 4.696802,-0.04639 -1.566068,0.01629 -0.795727,-1.348945 m 9.313731,-0.0784 -0.767495,1.365204 -1.566068,0.01629 m 4.69675,-0.05131 -1.566049,0.01793 -0.797138,-1.348112 m -3.130315,-1.77804 -1.566068,0.01629 -0.795726,-1.348945 m 2.388571,4.044357 -0.797137,-1.348111 0.77036,-1.363591 m -35.040598,20.473331 1.566049,-0.01794 0.797146,1.348106 m -2.392827,-4.041839 0.798556,1.347271 -0.768924,1.3644 m 0.02535,3.599952 0.797147,1.348106 -0.770352,1.363595 m 2.308214,-4.090752 -0.768925,1.3644 -1.566084,0.01465 m 4.588952,-8.105137 0.798556,1.347272 -0.768924,1.3644 m 2.303933,-4.093164 -0.767497,1.365204 -1.566068,0.01629 m -3.104982,1.821919 -0.768923,1.364401 -1.566084,0.01465 m 4.696802,-0.04639 -1.566068,0.01629 -0.795727,-1.348945 m -10.721541,6.281669 0.797146,1.348105 -0.770351,1.363595 m 2.308213,-4.090751 -0.768924,1.3644 -1.566084,0.01465 m -3.106886,1.818669 -0.770352,1.363595 -1.566098,0.01301 m 4.696848,-0.04148 -1.566084,0.01465 -0.794314,-1.349777 m 9.313809,-0.06865 -0.768924,1.3644 -1.566084,0.01465 m 4.696802,-0.04639 -1.566068,0.01629 -0.795726,-1.348945 m -3.128454,-1.781316 -1.566083,0.01465 -0.794315,-1.349777 m 2.384338,4.046855 -0.795727,-1.348945 0.771787,-1.362784 m 24.629854,-0.130896 0.798556,1.347271 -0.768924,1.3644 m 2.303932,-4.093163 -0.767496,1.365203 -1.566068,0.01629 m -3.104982,1.821918 -0.768924,1.3644 -1.566084,0.01465 m 4.696802,-0.04639 -1.566067,0.01629 -0.795727,-1.348945 m 9.313732,-0.0784 -0.767496,1.365204 -1.566068,0.01629 m 4.696751,-0.05131 -1.56605,0.01793 -0.797137,-1.348112 m -3.130315,-1.778042 -1.566068,0.01629 -0.795726,-1.348945 m 2.38857,4.044359 -0.797137,-1.348112 0.770361,-1.363591 m -10.800845,-6.14432 -0.768924,1.364401 -1.566084,0.01465 m 4.696802,-0.04639 -1.566067,0.01629 -0.795727,-1.348945 m -3.128453,-1.781314 -1.566084,0.01465 -0.794315,-1.349777 m 2.384338,4.046856 -0.795726,-1.348945 0.771787,-1.362784 m 4.716343,8.03168 -1.566067,0.01629 -0.795727,-1.348945 m 2.38857,4.044359 -0.797137,-1.348112 0.770361,-1.36359 m -0.02155,-3.599979 -0.795727,-1.348945 0.771787,-1.362784 m -2.312519,4.088321 0.77036,-1.36359 1.566099,-0.013 m 70.095091,-0.268333 1.56603,-0.01958 0.79856,1.347271 m -2.39706,-4.039334 0.79997,1.346435 -0.7675,1.365204 m 0.0291,3.599923 0.79856,1.347271 -0.76893,1.3644 m 2.30394,-4.093163 -0.7675,1.365203 -1.56607,0.01629 m 4.58047,-8.109932 0.79997,1.346435 -0.7675,1.365203 m 2.29965,-4.095571 -0.76607,1.366006 -1.56605,0.01793 m -3.10307,1.825166 -0.7675,1.365204 -1.56607,0.01629 m 4.69676,-0.05131 -1.56605,0.01793 -0.79714,-1.348111 m -10.71497,6.29288 0.79856,1.347271 -0.76892,1.3644 m 2.30393,-4.093163 -0.7675,1.365203 -1.56607,0.01629 m -3.10498,1.821918 -0.76892,1.3644 -1.56609,0.01465 m 4.69681,-0.04639 -1.56607,0.01629 -0.79573,-1.348945 m 9.31373,-0.0784 -0.76749,1.365204 -1.56607,0.01629 m 4.69675,-0.05131 -1.56605,0.01793 -0.79714,-1.348112 m -3.13031,-1.778042 -1.56607,0.01629 -0.79572,-1.348945 m 2.38857,4.044359 -0.79714,-1.348113 0.77036,-1.36359 m 24.6297,-0.156661 0.79997,1.346435 -0.7675,1.365203 m 2.29965,-4.095571 -0.76607,1.366006 -1.56605,0.01793 m -3.10307,1.825165 -0.7675,1.365203 -1.56607,0.01629 m 4.69675,-0.0513 -1.56605,0.01793 -0.79713,-1.348112 m 9.31364,-0.08814 -0.76607,1.366006 -1.56605,0.01793 m 4.6967,-0.05622 -1.56603,0.01957 -0.79855,-1.347278 m -3.13217,-1.774766 -1.56605,0.01793 -0.79714,-1.348112 m 2.3928,4.041858 -0.79855,-1.347278 0.76894,-1.364395 m -10.80727,-6.133018 -0.76749,1.365204 -1.56607,0.01629 m 4.69675,-0.05131 -1.56605,0.01793 -0.79714,-1.348112 m -3.13031,-1.77804 -1.56607,0.01629 -0.79573,-1.348945 m 2.38857,4.044359 -0.79713,-1.348112 0.77036,-1.36359 m 4.72474,8.026741 -1.56605,0.01793 -0.79714,-1.348112 m 2.3928,4.041858 -0.79854,-1.347278 0.76893,-1.364395 m -0.0253,-3.599954 -0.79714,-1.348112 0.77036,-1.36359 m -2.30824,4.090737 0.76893,-1.364395 1.56609,-0.01464 m -35.25069,-20.109468 0.79855,1.34727 -0.76892,1.3644 m 2.30393,-4.093163 -0.76749,1.365203 -1.56607,0.01629 m -3.10498,1.821919 -0.76893,1.3644 -1.56608,0.01465 m 4.6968,-0.0464 -1.56607,0.01629 -0.79572,-1.348945 m 9.31373,-0.0784 -0.7675,1.365204 -1.56607,0.01629 m 4.69675,-0.05131 -1.56604,0.01793 -0.79714,-1.348111 m -3.13032,-1.778041 -1.56607,0.01629 -0.79572,-1.348945 m 2.38857,4.044358 -0.79714,-1.348112 0.77036,-1.363591 m -10.80084,-6.144316 -0.76892,1.364401 -1.56609,0.01465 m 4.6968,-0.04639 -1.56606,0.01629 -0.79573,-1.348945 m -3.12845,-1.781314 -1.56609,0.01465 -0.79431,-1.349777 m 2.38433,4.046856 -0.79572,-1.348945 0.77179,-1.362784 m 4.71634,8.031679 -1.56607,0.01629 -0.79572,-1.348945 m 2.38857,4.044359 -0.79714,-1.348112 0.77036,-1.363591 m -0.0216,-3.599978 -0.79572,-1.348945 0.77178,-1.362784 m -2.31252,4.088321 0.77037,-1.36359 1.56609,-0.013 m 12.42825,21.264659 -0.7675,1.365203 -1.56607,0.01629 m 4.69676,-0.05131 -1.56605,0.01793 -0.79714,-1.348111 m -3.13032,-1.778041 -1.56606,0.01629 -0.79573,-1.348945 m 2.38857,4.044359 -0.79714,-1.348112 0.77036,-1.36359 m 4.72475,8.026741 -1.56605,0.01793 -0.79714,-1.348112 m 2.3928,4.041858 -0.79855,-1.347278 0.76894,-1.364395 m -0.0253,-3.599954 -0.79714,-1.348112 0.77036,-1.36359 m -2.30824,4.090737 0.76893,-1.364395 1.56609,-0.01464 m -0.0793,-12.425968 -1.56607,0.01629 -0.79573,-1.348945 m 2.38857,4.044358 -0.79713,-1.348112 0.77036,-1.363591 m -0.0216,-3.599977 -0.79573,-1.348945 0.77179,-1.362784 m -2.31252,4.088321 0.77036,-1.363591 1.5661,-0.013 m -4.59748,8.100304 -0.79714,-1.348111 0.77036,-1.363591 m -2.30824,4.090738 0.76893,-1.364396 1.56609,-0.01464 m 3.1069,-1.81865 0.77036,-1.363591 1.56609,-0.013 m -4.69685,0.04145 1.56609,-0.01464 0.79431,1.349782"
       inkscape:transform-center-x="2.8526797e-06"
       style="opacity:0.504;fill:#550000;fill-opacity:1;fill-rule:evenodd;stroke:#8e0000;stroke-width:2.074;stroke-miterlimit:4;stroke-dasharray:none;stroke-opacity:1"
       inkscape:path-effect="#path-effect4682"
       inkscape:original-d="m 104.27968,64.757346 -20.441821,35.816864 -41.239424,0.16205 m 123.680455,-0.55069 -41.23923,0.20519 -20.75998,-35.633414"
       transform="matrix(0,0.870211,-0.83061934,0,220.25258,57.846687)"
       class="UnoptimicedTransforms"
       inkscape:transform-center-y="-2.4596675e-06" />
  </g>
</svg>
