<?xml version="1.0" encoding="UTF-8" standalone="no"?>
<!-- Created with Inkscape (http://www.inkscape.org/) -->

<svg
   xmlns:dc="http://purl.org/dc/elements/1.1/"
   xmlns:cc="http://creativecommons.org/ns#"
   xmlns:rdf="http://www.w3.org/1999/02/22-rdf-syntax-ns#"
   xmlns:svg="http://www.w3.org/2000/svg"
   xmlns="http://www.w3.org/2000/svg"
   xmlns:sodipodi="http://sodipodi.sourceforge.net/DTD/sodipodi-0.dtd"
   xmlns:inkscape="http://www.inkscape.org/namespaces/inkscape"
   width="270"
   height="180"
   viewBox="0 0 71.437498 47.625001"
   version="1.1"
   id="svg4717"
   inkscape:version="1.2 (dc2aedaf03, 2022-05-15)"
   sodipodi:docname="ЕС флаг.svg">
  <defs
     id="defs4711" />
  <sodipodi:namedview
     id="base"
     pagecolor="#ffffff"
     bordercolor="#666666"
     borderopacity="1.0"
     inkscape:pageopacity="0.0"
     inkscape:pageshadow="2"
     inkscape:zoom="3.3312586"
     inkscape:cx="127.96618"
     inkscape:cy="106.61739"
     inkscape:document-units="mm"
     inkscape:current-layer="layer1"
     showgrid="true"
     units="px"
     showguides="true"
     inkscape:guide-bbox="true"
     inkscape:window-width="1920"
     inkscape:window-height="1017"
     inkscape:window-x="-8"
     inkscape:window-y="-8"
     inkscape:window-maximized="1">
    <inkscape:grid
       type="xygrid"
       id="grid4719"
       spacingx="2.6458333"
       spacingy="2.6458333" />
    <sodipodi:guide
       position="35.71875,23.8125"
       orientation="0,1"
       id="guide4721"
       inkscape:locked="false"
       inkscape:label=""
       inkscape:color="rgb(0,0,255)" />
    <sodipodi:guide
       position="35.71875,23.8125"
       orientation="1,-9.44882e-08"
       id="guide4723"
       inkscape:locked="false"
       inkscape:label=""
       inkscape:color="rgb(0,0,255)" />
    <inkscape:grid
       type="xygrid"
       id="grid5610" />
  </sodipodi:namedview>
  <metadata
     id="metadata4714">
    <rdf:RDF>
      <cc:Work
         rdf:about="">
        <dc:format>image/svg+xml</dc:format>
        <dc:type
           rdf:resource="http://purl.org/dc/dcmitype/StillImage" />
        <dc:title></dc:title>
      </cc:Work>
    </rdf:RDF>
  </metadata>
  <g
     inkscape:label="Layer 1"
     inkscape:groupmode="layer"
     id="layer1"
     transform="translate(0,-249.37498)">
    <rect
       style="fill:#003399;fill-opacity:1;stroke:none;stroke-width:0.26458332;stroke-opacity:1"
       id="rect5608"
       width="71.4375"
       height="47.625"
       x="0"
       y="249.37498" />
    <path
       inkscape:transform-center-y="-0.2526549"
       d="m 35.71875,286.41664 0.594079,1.82815 1.922258,7e-5 -1.555096,1.12994 0.593941,1.82819 -1.555182,-1.12981 -1.555182,1.12981 0.593941,-1.82819 -1.555096,-1.12994 1.922258,-7e-5 z"
       inkscape:randomized="0"
       inkscape:rounded="0"
       inkscape:flatsided="false"
       sodipodi:arg2="-0.9424778"
       sodipodi:arg1="-1.5707963"
       sodipodi:r2="1.0107083"
       sodipodi:r1="2.6458333"
       sodipodi:cy="289.06247"
       sodipodi:cx="35.71875"
       sodipodi:sides="5"
       id="path5614"
       style="fill:#ffcc00;fill-opacity:1;stroke:none;stroke-width:0.26458332;stroke-opacity:1"
       sodipodi:type="star" />
    <path
       sodipodi:type="star"
       style="fill:#ffcc00;fill-opacity:1;stroke:none;stroke-width:0.26458332;stroke-opacity:1"
       id="path5616"
       sodipodi:sides="5"
       sodipodi:cx="35.71875"
       sodipodi:cy="289.06247"
       sodipodi:r1="2.6458333"
       sodipodi:r2="1.0107083"
       sodipodi:arg1="-1.5707963"
       sodipodi:arg2="-0.9424778"
       inkscape:flatsided="false"
       inkscape:rounded="0"
       inkscape:randomized="0"
       d="m 35.71875,286.41664 0.594079,1.82815 1.922258,7e-5 -1.555096,1.12994 0.593941,1.82819 -1.555182,-1.12981 -1.555182,1.12981 0.593941,-1.82819 -1.555096,-1.12994 1.922258,-7e-5 z"
       inkscape:transform-center-y="-0.2526549" />
    <path
       inkscape:transform-center-y="-0.042790551"
       d="m 35.71875,254.66664 0.594079,1.82815 1.922258,7e-5 -1.555096,1.12994 0.593941,1.82819 -1.555182,-1.12981 -1.555182,1.12981 0.593941,-1.82819 -1.555096,-1.12994 1.922258,-7e-5 z"
       inkscape:randomized="0"
       inkscape:rounded="0"
       inkscape:flatsided="false"
       sodipodi:arg2="-0.9424778"
       sodipodi:arg1="-1.5707963"
       sodipodi:r2="1.0107083"
       sodipodi:r1="2.6458333"
       sodipodi:cy="257.31247"
       sodipodi:cx="35.71875"
       sodipodi:sides="5"
       id="path5618"
       style="fill:#ffcc00;fill-opacity:1;stroke:none;stroke-width:0.26458332;stroke-opacity:1"
       sodipodi:type="star"
       transform="rotate(15,35.71875,257.31247)"
       inkscape:transform-center-x="-0.21161251" />
    <path
       inkscape:transform-center-y="0.16998972"
       d="m 35.71875,286.41664 0.594079,1.82815 1.922258,7e-5 -1.555096,1.12994 0.593941,1.82819 -1.555182,-1.12981 -1.555182,1.12981 0.593941,-1.82819 -1.555096,-1.12994 1.922258,-7e-5 z"
       inkscape:randomized="0"
       inkscape:rounded="0"
       inkscape:flatsided="false"
       sodipodi:arg2="-0.9424778"
       sodipodi:arg1="-1.5707963"
       sodipodi:r2="1.0107083"
       sodipodi:r1="2.6458333"
       sodipodi:cy="289.06247"
       sodipodi:cx="35.71875"
       sodipodi:sides="5"
       id="path5620"
       style="fill:#ffcc00;fill-opacity:1;stroke:none;stroke-width:0.26458332;stroke-opacity:1"
       sodipodi:type="star"
       transform="rotate(30,33.628767,273.18747)"
       inkscape:transform-center-x="-0.085463515" />
    <path
       sodipodi:type="star"
       style="fill:#ffcc00;fill-opacity:1;stroke:none;stroke-width:0.26458332;stroke-opacity:1"
       id="path5622"
       sodipodi:sides="5"
       sodipodi:cx="35.71875"
       sodipodi:cy="257.31247"
       sodipodi:r1="2.6458333"
       sodipodi:r2="1.0107083"
       sodipodi:arg1="-1.5707963"
       sodipodi:arg2="-0.9424778"
       inkscape:flatsided="false"
       inkscape:rounded="0"
       inkscape:randomized="0"
       d="m 35.71875,254.66664 0.594079,1.82815 1.922258,7e-5 -1.555096,1.12994 0.593941,1.82819 -1.555182,-1.12981 -1.555182,1.12981 0.593941,-1.82819 -1.555096,-1.12994 1.922258,-7e-5 z"
       inkscape:transform-center-y="-0.042790551"
       transform="rotate(15,35.71875,289.06247)"
       inkscape:transform-center-x="-0.21161251" />
    <path
       d="m 35.71875,286.41664 0.594079,1.82815 1.922258,7e-5 -1.555096,1.12994 0.593941,1.82819 -1.555182,-1.12981 -1.555182,1.12981 0.593941,-1.82819 -1.555096,-1.12994 1.922258,-7e-5 z"
       inkscape:randomized="0"
       inkscape:rounded="0"
       inkscape:flatsided="false"
       sodipodi:arg2="-0.9424778"
       sodipodi:arg1="-1.5707963"
       sodipodi:r2="1.0107083"
       sodipodi:r1="2.6458333"
       sodipodi:cy="289.06247"
       sodipodi:cx="35.71875"
       sodipodi:sides="5"
       id="path5628"
       style="fill:#ffcc00;fill-opacity:1;stroke:none;stroke-width:0.26458332;stroke-opacity:1"
       sodipodi:type="star"
       transform="rotate(90,32.710935,277.83715)"
       inkscape:transform-center-x="-0.2526557" />
    <path
       inkscape:transform-center-x="-0.21161121"
       transform="rotate(15,21.711923,316.39214)"
       sodipodi:type="star"
       style="fill:#ffcc00;fill-opacity:1;stroke:none;stroke-width:0.26458332;stroke-opacity:1"
       id="path5630"
       sodipodi:sides="5"
       sodipodi:cx="35.71875"
       sodipodi:cy="257.31247"
       sodipodi:r1="2.6458333"
       sodipodi:r2="1.0107083"
       sodipodi:arg1="-1.5707963"
       sodipodi:arg2="-0.9424778"
       inkscape:flatsided="false"
       inkscape:rounded="0"
       inkscape:randomized="0"
       d="m 35.71875,254.66664 0.594079,1.82815 1.922258,7e-5 -1.555096,1.12994 0.593941,1.82819 -1.555182,-1.12981 -1.555182,1.12981 0.593941,-1.82819 -1.555096,-1.12994 1.922258,-7e-5 z"
       inkscape:transform-center-y="-0.042790641" />
    <path
       inkscape:transform-center-x="-0.085463515"
       transform="rotate(30,40.750909,302.23651)"
       sodipodi:type="star"
       style="fill:#ffcc00;fill-opacity:1;stroke:none;stroke-width:0.26458332;stroke-opacity:1"
       id="path5632"
       sodipodi:sides="5"
       sodipodi:cx="35.71875"
       sodipodi:cy="289.06247"
       sodipodi:r1="2.6458333"
       sodipodi:r2="1.0107083"
       sodipodi:arg1="-1.5707963"
       sodipodi:arg2="-0.9424778"
       inkscape:flatsided="false"
       inkscape:rounded="0"
       inkscape:randomized="0"
       d="m 35.71875,286.41664 0.594079,1.82815 1.922258,7e-5 -1.555096,1.12994 0.593941,1.82819 -1.555182,-1.12981 -1.555182,1.12981 0.593941,-1.82819 -1.555096,-1.12994 1.922258,-7e-5 z"
       inkscape:transform-center-y="0.16998972" />
    <path
       inkscape:transform-center-x="-0.21161251"
       transform="rotate(15,35.71875,289.06247)"
       inkscape:transform-center-y="-0.042790551"
       d="m 35.71875,254.66664 0.594079,1.82815 1.922258,7e-5 -1.555096,1.12994 0.593941,1.82819 -1.555182,-1.12981 -1.555182,1.12981 0.593941,-1.82819 -1.555096,-1.12994 1.922258,-7e-5 z"
       inkscape:randomized="0"
       inkscape:rounded="0"
       inkscape:flatsided="false"
       sodipodi:arg2="-0.9424778"
       sodipodi:arg1="-1.5707963"
       sodipodi:r2="1.0107083"
       sodipodi:r1="2.6458333"
       sodipodi:cy="257.31247"
       sodipodi:cx="35.71875"
       sodipodi:sides="5"
       id="path5634"
       style="fill:#ffcc00;fill-opacity:1;stroke:none;stroke-width:0.26458332;stroke-opacity:1"
       sodipodi:type="star" />
    <path
       sodipodi:type="star"
       style="fill:#ffcc00;fill-opacity:1;stroke:none;stroke-width:0.26458332;stroke-opacity:1"
       id="path5636"
       sodipodi:sides="5"
       sodipodi:cx="35.71875"
       sodipodi:cy="289.06247"
       sodipodi:r1="2.6458333"
       sodipodi:r2="1.0107083"
       sodipodi:arg1="-1.5707963"
       sodipodi:arg2="-0.9424778"
       inkscape:flatsided="false"
       inkscape:rounded="0"
       inkscape:randomized="0"
       d="m 35.71875,286.41664 0.594079,1.82815 1.922258,7e-5 -1.555096,1.12994 0.593941,1.82819 -1.555182,-1.12981 -1.555182,1.12981 0.593941,-1.82819 -1.555096,-1.12994 1.922258,-7e-5 z"
       inkscape:transform-center-y="-0.085463671"
       transform="rotate(-60,35.318758,273.08112)"
       inkscape:transform-center-x="-0.16998948" />
    <path
       inkscape:transform-center-y="-0.04279068"
       d="m 35.71875,254.66664 0.594079,1.82815 1.922258,7e-5 -1.555096,1.12994 0.593941,1.82819 -1.555182,-1.12981 -1.555182,1.12981 0.593941,-1.82819 -1.555096,-1.12994 1.922258,-7e-5 z"
       inkscape:randomized="0"
       inkscape:rounded="0"
       inkscape:flatsided="false"
       sodipodi:arg2="-0.9424778"
       sodipodi:arg1="-1.5707963"
       sodipodi:r2="1.0107083"
       sodipodi:r1="2.6458333"
       sodipodi:cy="257.31247"
       sodipodi:cx="35.71875"
       sodipodi:sides="5"
       id="path5638"
       style="fill:#ffcc00;fill-opacity:1;stroke:none;stroke-width:0.26458332;stroke-opacity:1"
       sodipodi:type="star"
       transform="rotate(-15,36.068759,291.92642)"
       inkscape:transform-center-x="0.21161122" />
    <path
       inkscape:transform-center-y="0.16998972"
       d="m 35.71875,286.41664 0.594079,1.82815 1.922258,7e-5 -1.555096,1.12994 0.593941,1.82819 -1.555182,-1.12981 -1.555182,1.12981 0.593941,-1.82819 -1.555096,-1.12994 1.922258,-7e-5 z"
       inkscape:randomized="0"
       inkscape:rounded="0"
       inkscape:flatsided="false"
       sodipodi:arg2="-0.9424778"
       sodipodi:arg1="-1.5707963"
       sodipodi:r2="1.0107083"
       sodipodi:r1="2.6458333"
       sodipodi:cy="289.06247"
       sodipodi:cx="35.71875"
       sodipodi:sides="5"
       id="path5640"
       style="fill:#ffcc00;fill-opacity:1;stroke:none;stroke-width:0.26458332;stroke-opacity:1"
       sodipodi:type="star"
       inkscape:transform-center-x="-0.085463515"
       transform="rotate(30,57.38867,249.07149)" />
    <path
       sodipodi:type="star"
       style="fill:#ffcc00;fill-opacity:1;stroke:none;stroke-width:0.26458332;stroke-opacity:1"
       id="path5642"
       sodipodi:sides="5"
       sodipodi:cx="35.71875"
       sodipodi:cy="257.31247"
       sodipodi:r1="2.6458333"
       sodipodi:r2="1.0107083"
       sodipodi:arg1="-1.5707963"
       sodipodi:arg2="-0.9424778"
       inkscape:flatsided="false"
       inkscape:rounded="0"
       inkscape:randomized="0"
       d="m 35.71875,254.66664 0.594079,1.82815 1.922258,7e-5 -1.555096,1.12994 0.593941,1.82819 -1.555182,-1.12981 -1.555182,1.12981 0.593941,-1.82819 -1.555096,-1.12994 1.922258,-7e-5 z"
       inkscape:transform-center-y="-0.21161719"
       transform="rotate(75,33.737579,275.66041)"
       inkscape:transform-center-x="-0.042785426" />
    <path
       inkscape:transform-center-y="-0.042790641"
       d="m 35.71875,254.66664 0.594079,1.82815 1.922258,7e-5 -1.555096,1.12994 0.593941,1.82819 -1.555182,-1.12981 -1.555182,1.12981 0.593941,-1.82819 -1.555096,-1.12994 1.922258,-7e-5 z"
       inkscape:randomized="0"
       inkscape:rounded="0"
       inkscape:flatsided="false"
       sodipodi:arg2="-0.9424778"
       sodipodi:arg1="-1.5707963"
       sodipodi:r2="1.0107083"
       sodipodi:r1="2.6458333"
       sodipodi:cy="257.31247"
       sodipodi:cx="35.71875"
       sodipodi:sides="5"
       id="path5644"
       style="fill:#ffcc00;fill-opacity:1;stroke:none;stroke-width:0.26458332;stroke-opacity:1"
       sodipodi:type="star"
       transform="rotate(15,4.2816203,201.51441)"
       inkscape:transform-center-x="-0.21161121" />
  </g>
</svg>
